# xmcd
#
# Track frame offsets: 
#        150
#        20407
#        38012
#        64600
#        79125
#        96332
#        120805
#        139462
#        159915
#        186105
#        202625
#
# Disc length: 2959 seconds
#
# Revision: 0
# Processed by: cddbd v1.5PL3 Copyright (c) Steve Scherf et al.
# Submitted via: ExactAudioCopy v0.95a5
#
DISCID=810b8d0b
DTITLE=Burnin' Chicago Blues Machine - Boogie Blues
DYEAR=1991
DGENRE=Blues
TTITLE0=Lucinda
TTITLE1=Women
TTITLE2=Boogie Blues
TTITLE3=Dollars
TTITLE4=Britches
TTITLE5=Midnight Sunrise
TTITLE6=Bow Legs
TTITLE7=Two Lovers are better than One
TTITLE8=Sadie
TTITLE9=Stay with Me
TTITLE10=One for Beau
EXTD=
EXTT0=
EXTT1=
EXTT2=
EXTT3=
EXTT4=
EXTT5=
EXTT6=
EXTT7=
EXTT8=
EXTT9=
EXTT10=
PLAYORDER=
